<?xml version="1.0" encoding="UTF-8" standalone="no"?>
<svg width="449px" height="258px" viewBox="0 0 449 258" version="1.1" xmlns="http://www.w3.org/2000/svg" xmlns:xlink="http://www.w3.org/1999/xlink" xmlns:sketch="http://www.bohemiancoding.com/sketch/ns">
    <!-- Generator: Sketch 3.2.2 (9983) - http://www.bohemiancoding.com/sketch -->
    <title>Slice 1</title>
    <desc>Created with Sketch.</desc>
    <defs></defs>
    <g id="Page-1" stroke="none" stroke-width="1" fill="none" fill-rule="evenodd" sketch:type="MSPage">
        <g id="chevron-dark" sketch:type="MSLayerGroup" transform="translate(224.000000, 129.000000) rotate(-270.000000) translate(-224.000000, -129.000000) translate(96.000000, -95.000000)" fill="#767879">
            <g id="Page-1" sketch:type="MSShapeGroup">
                <g id="chevron-light">
                    <g id="Page-1">
                        <g id="chevron">
                            <path d="M128,266.3 L128,266.3 L302.2,99.1000003 C306.5,94.9000003 313.6,95.0000003 318,99.3000003 L348.6,129.2 C353,133.5 353.1,140.5 348.8,144.7 L136.1,348.9 C133.9,351.1 130.9,352.1 128,351.9 C125,352 122.1,351 119.9,348.9 L-92.8000003,144.7 C-97.1000003,140.5 -97.0000003,133.5 -92.6000003,129.2 L-62.0000003,99.3000003 C-57.6000003,95.0000003 -50.5000003,94.9000003 -46.2000003,99.1000003 L128,266.3 L128,266.3 Z" id="Shape" transform="translate(128.000000, 223.968254) rotate(-90.000000) translate(-128.000000, -223.968254) "></path>
                        </g>
                    </g>
                </g>
            </g>
        </g>
    </g>
</svg>